<svg width="124" height="210" viewBox="0 0 124 210" fill="none" xmlns="http://www.w3.org/2000/svg">
<path d="M119 162C121.761 162 124 159.761 124 157C124 154.239 121.761 152 119 152L119 162ZM104 152L99 152L99 162L104 162L104 152ZM110.429 157L110.429 162L110.429 162L110.429 157ZM119 152L110.429 152L110.429 162L119 162L119 152ZM110.429 152L104 152L104 162L110.429 162L110.429 152Z" fill="#D9111D"/>
<path d="M47.4432 164.557C40.5303 164.557 34.2566 163.255 28.6222 160.651C22.9877 157.999 18.5133 154.188 15.1989 149.216C11.8845 144.197 10.2273 138.136 10.2273 131.034C10.2273 124.784 11.4583 119.718 13.9205 115.835C16.3826 111.905 19.6733 108.828 23.7926 106.602C27.9119 104.377 32.4574 102.72 37.429 101.631C42.4479 100.494 47.4905 99.5947 52.5568 98.9318C59.1856 98.0795 64.5597 97.4403 68.679 97.0142C72.8456 96.5407 75.8759 95.7595 77.7699 94.6705C79.7112 93.5814 80.6818 91.6875 80.6818 88.9886V88.4205C80.6818 81.4129 78.7642 75.9678 74.929 72.0852C71.1411 68.2027 65.3883 66.2614 57.6705 66.2614C49.6686 66.2614 43.3949 68.0133 38.8494 71.517C34.304 75.0208 31.108 78.7614 29.2614 82.7386L13.3523 77.0568C16.1932 70.428 19.9811 65.267 24.7159 61.5739C29.4981 57.8333 34.7064 55.2292 40.3409 53.7614C46.0227 52.2462 51.6098 51.4886 57.1023 51.4886C60.6061 51.4886 64.6307 51.9148 69.1761 52.767C73.7689 53.572 78.196 55.2528 82.4574 57.8097C86.7661 60.3665 90.3409 64.2254 93.1818 69.3864C96.0227 74.5473 97.4432 81.4602 97.4432 90.125V162H80.6818V147.227H79.8295C78.6932 149.595 76.7992 152.128 74.1477 154.827C71.4962 157.526 67.9688 159.822 63.5653 161.716C59.1619 163.61 53.7879 164.557 47.4432 164.557ZM50 149.5C56.6288 149.5 62.2159 148.198 66.7614 145.594C71.3542 142.99 74.8106 139.628 77.1307 135.509C79.4981 131.389 80.6818 127.057 80.6818 122.511V107.17C79.9716 108.023 78.4091 108.804 75.9943 109.514C73.6269 110.177 70.8807 110.769 67.7557 111.29C64.678 111.763 61.6714 112.189 58.7358 112.568C55.8475 112.9 53.5038 113.184 51.7045 113.42C47.3485 113.989 43.2765 114.912 39.4886 116.19C35.7481 117.421 32.7178 119.292 30.3977 121.801C28.125 124.263 26.9886 127.625 26.9886 131.886C26.9886 137.71 29.143 142.114 33.4517 145.097C37.8078 148.032 43.3239 149.5 50 149.5Z" fill="black"/>
</svg>

