<svg width="460" height="159" viewBox="0 0 460 159" fill="none" xmlns="http://www.w3.org/2000/svg">
<path d="M77.1708 124.48C79.8369 124.536 81.8454 122.273 81.6568 119.427C81.4682 116.58 79.1539 114.227 76.4877 114.172L76.8293 119.326L77.1708 124.48ZM72.6585 114.092L67.831 113.991L68.514 124.3L73.3415 124.4L73 119.246L72.6585 114.092ZM76.8293 119.326L76.4877 114.172L72.6585 114.092L73 119.246L73.3415 124.4L77.1708 124.48L76.8293 119.326Z" fill="#D9111D"/>
<path d="M30.3636 125.636C25.9394 125.636 21.9242 124.803 18.3182 123.136C14.7121 121.439 11.8485 119 9.72727 115.818C7.60606 112.606 6.54545 108.727 6.54545 104.182C6.54545 100.182 7.33333 96.9394 8.90909 94.4545C10.4848 91.9394 12.5909 89.9697 15.2273 88.5455C17.8636 87.1212 20.7727 86.0606 23.9545 85.3636C27.1667 84.6364 30.3939 84.0606 33.6364 83.6364C37.8788 83.0909 41.3182 82.6818 43.9545 82.4091C46.6212 82.1061 48.5606 81.6061 49.7727 80.9091C51.0152 80.2121 51.6364 79 51.6364 77.2727V76.9091C51.6364 72.4242 50.4091 68.9394 47.9545 66.4545C45.5303 63.9697 41.8485 62.7273 36.9091 62.7273C31.7879 62.7273 27.7727 63.8485 24.8636 66.0909C21.9545 68.3333 19.9091 70.7273 18.7273 73.2727L8.54545 69.6364C10.3636 65.3939 12.7879 62.0909 15.8182 59.7273C18.8788 57.3333 22.2121 55.6667 25.8182 54.7273C29.4545 53.7576 33.0303 53.2727 36.5455 53.2727C38.7879 53.2727 41.3636 53.5455 44.2727 54.0909C47.2121 54.6061 50.0455 55.6818 52.7727 57.3182C55.5303 58.9545 57.8182 61.4242 59.6364 64.7273C61.4545 68.0303 62.3636 72.4545 62.3636 78V124H51.6364V114.545H51.0909C50.3636 116.061 49.1515 117.682 47.4545 119.409C45.7576 121.136 43.5 122.606 40.6818 123.818C37.8636 125.03 34.4242 125.636 30.3636 125.636ZM32 116C36.2424 116 39.8182 115.167 42.7273 113.5C45.6667 111.833 47.8788 109.682 49.3636 107.045C50.8788 104.409 51.6364 101.636 51.6364 98.7273V88.9091C51.1818 89.4545 50.1818 89.9545 48.6364 90.4091C47.1212 90.8333 45.3636 91.2121 43.3636 91.5455C41.3939 91.8485 39.4697 92.1212 37.5909 92.3636C35.7424 92.5758 34.2424 92.7576 33.0909 92.9091C30.303 93.2727 27.697 93.8636 25.2727 94.6818C22.8788 95.4697 20.9394 96.6667 19.4545 98.2727C18 99.8485 17.2727 102 17.2727 104.727C17.2727 108.455 18.6515 111.273 21.4091 113.182C24.197 115.061 27.7273 116 32 116Z" fill="black"/>
<path d="M179.792 101.824C178.512 101.888 177.296 101.952 176.144 102.016C174.992 102.08 173.84 102.176 172.688 102.304C171.6 102.368 170.608 102.464 169.712 102.592C165.104 103.168 161.84 104.192 159.92 105.664C158 107.072 157.04 109.12 157.04 111.808C157.04 114.048 157.712 115.744 159.056 116.896C160.464 117.984 162.288 118.528 164.528 118.528C167.6 118.528 170.32 118.016 172.688 116.992C175.12 115.904 177.488 114.496 179.792 112.768V101.824ZM179.696 119.488C176.688 121.216 173.872 122.624 171.248 123.712C168.688 124.736 165.904 125.248 162.896 125.248C158.608 125.248 155.184 124.224 152.624 122.176C150.128 120.064 148.88 116.608 148.88 111.808C148.88 109.312 149.52 107.136 150.8 105.28C152.08 103.424 153.744 101.888 155.792 100.672C157.904 99.392 160.272 98.4 162.896 97.696C165.52 96.992 168.208 96.544 170.96 96.352C172.112 96.224 173.616 96.128 175.472 96.064C177.328 95.936 178.768 95.84 179.792 95.776C179.792 93.536 179.728 91.552 179.6 89.824C179.472 88.032 179.088 86.528 178.448 85.312C177.808 84.032 176.848 83.072 175.568 82.432C174.352 81.792 172.592 81.472 170.288 81.472C168.432 81.472 166.64 81.6 164.912 81.856C163.184 82.048 161.648 82.272 160.304 82.528C158.704 82.848 157.232 83.2 155.888 83.584L154.352 76.96C155.952 76.576 157.68 76.224 159.536 75.904C161.136 75.584 162.992 75.328 165.104 75.136C167.216 74.88 169.488 74.752 171.92 74.752C175.184 74.752 177.808 75.232 179.792 76.192C181.84 77.152 183.408 78.464 184.496 80.128C185.648 81.728 186.416 83.584 186.8 85.696C187.248 87.744 187.472 89.92 187.472 92.224V115.264C187.472 116.16 187.472 117.12 187.472 118.144C187.536 119.104 187.6 120.064 187.664 121.024C187.792 121.984 187.92 122.976 188.048 124L180.656 124.768L179.696 119.488ZM204.759 81.952H195.831V75.712H204.759C204.759 71.232 205.047 67.456 205.623 64.384C206.263 61.248 207.255 58.72 208.599 56.8C209.943 54.816 211.671 53.408 213.783 52.576C215.895 51.68 218.455 51.232 221.463 51.232C223.895 51.232 226.167 51.648 228.279 52.48C230.391 53.248 232.087 54.208 233.367 55.36L230.007 61.12C228.727 60.16 227.383 59.392 225.975 58.816C224.631 58.24 223.159 57.952 221.559 57.952C219.447 57.952 217.783 58.432 216.567 59.392C215.351 60.288 214.423 61.536 213.783 63.136C213.207 64.736 212.823 66.624 212.631 68.8C212.503 70.912 212.439 73.216 212.439 75.712H224.439V81.952H212.439V124H204.759V81.952ZM262.152 118.72H261.96C261.384 119.168 260.552 119.776 259.464 120.544C258.376 121.248 257.128 121.952 255.72 122.656C254.312 123.36 252.744 123.968 251.016 124.48C249.352 124.992 247.656 125.248 245.928 125.248C243.56 125.248 241.544 124.928 239.88 124.288C238.216 123.712 236.872 122.72 235.848 121.312C234.824 119.904 234.088 118.048 233.64 115.744C233.192 113.44 232.968 110.56 232.968 107.104V75.712H240.648V105.952C240.648 107.872 240.68 109.6 240.744 111.136C240.808 112.672 241.032 113.984 241.416 115.072C241.8 116.16 242.408 117.024 243.24 117.664C244.136 118.24 245.384 118.528 246.984 118.528C248.648 118.528 250.376 118.176 252.168 117.472C253.96 116.768 255.592 115.968 257.064 115.072C258.792 114.048 260.488 112.896 262.152 111.616V75.712H269.832V117.76C269.896 120.064 270.056 122.144 270.312 124L262.728 124.768L262.152 118.72ZM283.787 52.096L291.467 51.232V124H283.787V52.096ZM305.256 75.616L312.936 74.752V124H305.256V75.616ZM304.008 61.888C304.008 60.416 304.488 59.2 305.448 58.24C306.472 57.216 307.72 56.704 309.192 56.704C310.728 56.704 312.008 57.216 313.032 58.24C314.12 59.2 314.664 60.416 314.664 61.888C314.664 63.36 314.12 64.608 313.032 65.632C312.008 66.592 310.728 67.072 309.192 67.072C307.72 67.072 306.472 66.592 305.448 65.632C304.488 64.608 304.008 63.36 304.008 61.888ZM326.821 85.312C326.885 83.968 326.725 81.056 326.341 76.576L333.445 75.616L334.501 81.76C336.421 80.48 338.309 79.36 340.165 78.4C342.085 77.44 344.037 76.608 346.021 75.904C348.005 75.136 349.925 74.752 351.781 74.752C354.405 74.752 356.581 75.072 358.309 75.712C360.101 76.288 361.541 77.28 362.629 78.688C363.717 80.096 364.485 81.952 364.933 84.256C365.445 86.56 365.701 89.44 365.701 92.896V124H358.021V93.76C358.021 91.84 357.989 90.144 357.925 88.672C357.861 87.136 357.573 85.856 357.061 84.832C356.613 83.744 355.877 82.912 354.853 82.336C353.893 81.76 352.517 81.472 350.725 81.472C349.061 81.472 347.301 81.856 345.445 82.624C343.589 83.328 341.765 84.16 339.973 85.12C338.181 86.08 336.357 87.2 334.501 88.48V124H326.821V85.312ZM379.225 52.096L386.905 51.232V94.528L408.313 75.712H418.873L397.945 94.048L419.641 124H409.945L392.281 98.944L386.905 103.648V124H379.225V52.096Z" fill="black"/>
<path d="M422 41.3451C422 39.4784 422.347 37.7184 423.04 36.0651C423.76 34.3851 424.733 32.9317 425.96 31.7051C427.213 30.4784 428.653 29.5051 430.28 28.7851C431.933 28.0651 433.707 27.7051 435.6 27.7051C437.467 27.7051 439.227 28.0651 440.88 28.7851C442.56 29.5051 444.013 30.4784 445.24 31.7051C446.467 32.9317 447.44 34.3851 448.16 36.0651C448.88 37.7184 449.24 39.4784 449.24 41.3451C449.24 43.2384 448.88 45.0117 448.16 46.6651C447.44 48.2917 446.467 49.7317 445.24 50.9851C444.013 52.2117 442.56 53.1851 440.88 53.9051C439.227 54.5984 437.467 54.9451 435.6 54.9451C433.707 54.9451 431.933 54.5984 430.28 53.9051C428.653 53.1851 427.213 52.2117 425.96 50.9851C424.733 49.7317 423.76 48.2917 423.04 46.6651C422.347 45.0117 422 43.2384 422 41.3451ZM424.28 41.3451C424.28 42.8917 424.573 44.3584 425.16 45.7451C425.773 47.1051 426.587 48.3051 427.6 49.3451C428.64 50.3584 429.84 51.1717 431.2 51.7851C432.587 52.3717 434.053 52.6651 435.6 52.6651C437.173 52.6651 438.64 52.3717 440 51.7851C441.387 51.1717 442.587 50.3584 443.6 49.3451C444.64 48.3051 445.453 47.1051 446.04 45.7451C446.627 44.3584 446.92 42.8917 446.92 41.3451C446.92 39.7717 446.627 38.3051 446.04 36.9451C445.453 35.5584 444.64 34.3584 443.6 33.3451C442.587 32.3051 441.387 31.4917 440 30.9051C438.64 30.3184 437.173 30.0251 435.6 30.0251C434.053 30.0251 432.587 30.3184 431.2 30.9051C429.84 31.4917 428.64 32.3051 427.6 33.3451C426.587 34.3584 425.773 35.5584 425.16 36.9451C424.573 38.3051 424.28 39.7717 424.28 41.3451ZM431.08 33.2651H434.84C436.52 33.2651 437.853 33.6251 438.84 34.3451C439.853 35.0384 440.36 36.1317 440.36 37.6251C440.36 38.5584 440.2 39.3184 439.88 39.9051C439.587 40.4651 439.227 40.9317 438.8 41.3051C438.373 41.6517 437.88 41.8917 437.32 42.0251L437.24 42.1851C437.293 42.2117 437.347 42.2517 437.4 42.3051C437.453 42.3584 437.507 42.4251 437.56 42.5051C437.613 42.5851 437.693 42.6784 437.8 42.7851L442.2 48.6251H439.12L434.64 42.5051H433.64V48.6251H431.08V33.2651ZM437.68 37.9451C437.68 37.0651 437.44 36.4784 436.96 36.1851C436.507 35.8651 435.8 35.7051 434.84 35.7051H433.64V40.0651H435.16C436.067 40.0651 436.707 39.8784 437.08 39.5051C437.453 39.1317 437.653 38.6117 437.68 37.9451Z" fill="black"/>
<path d="M114.568 51L114.843 94.3876L114.792 141.317" stroke="black" stroke-width="6"/>
</svg>
