<svg width="886" height="87" viewBox="0 0 886 87" fill="none" xmlns="http://www.w3.org/2000/svg">
<path d="M24.5821 77.2384V21.7195H9.78393C3.66898 21.7195 0 17.2048 0 11.8359C0 6.46704 3.66898 1.95232 9.78393 1.95232H58.7036C64.8186 1.95232 68.4875 6.46704 68.4875 11.8359C68.4875 17.2048 64.8186 21.7195 58.7036 21.7195H44.15V77.2384C44.15 83.7055 39.6249 87 34.2438 87C28.9849 87 24.5821 83.7055 24.5821 77.2384Z" fill="#CD2D88"/>
<path d="M141.288 62.5961V77.2384C141.288 83.3394 136.885 86.878 131.504 86.878C126.368 86.878 121.72 83.7055 121.72 77.2384V62.5961C121.72 52.1024 116.706 50.8822 111.202 50.8822H107.411C103.62 50.8822 100.562 49.1739 100.562 43.195C100.562 37.46 103.742 36.2398 107.411 36.2398H111.325C116.828 36.2398 121.842 35.2637 121.842 27.9425C121.842 20.7433 115.728 18.0589 108.023 18.0589C97.2603 18.0589 93.9582 20.2553 93.9582 26.2342V77.2384C93.9582 83.3394 89.5555 86.878 84.1743 86.878C79.0378 86.878 74.3904 83.7055 74.3904 77.2384V19.6452C74.3904 4.75877 85.0304 0 107.044 0C123.677 0 139.82 4.88079 139.82 24.2819C139.82 32.9453 135.662 39.9004 126.123 42.8289C135.907 45.0252 141.288 51.8583 141.288 62.5961Z" fill="#CD2D88"/>
<path d="M216.263 85.9018H191.07C183.487 85.9018 178.84 82.7293 178.84 76.1403C178.84 69.4292 183.732 66.3787 191.07 66.3787H203.299C200.487 54.2987 192.17 32.9453 186.3 26.1122C179.696 35.2637 171.257 56.007 167.099 73.3338C165.02 82.1192 162.818 86.878 155.97 86.878C148.754 86.878 146.063 82.3633 146.063 77.1164C146.063 70.1613 149.977 57.3492 155.48 43.9271C162.085 27.8205 173.458 1.2202 186.178 1.2202C198.897 1.2202 210.27 27.6985 216.752 43.9271C222.134 57.2272 226.047 69.5512 226.047 76.7504C226.047 82.2412 223.723 85.9018 216.263 85.9018Z" fill="#CD2D88"/>
<path d="M255.901 62.23C262.872 52.5905 270.21 32.3352 274.245 15.0084C276.569 6.223 278.404 1.2202 285.375 1.2202C292.59 1.2202 295.036 6.34503 295.036 11.8359C295.036 17.9369 291.245 31.115 285.864 44.2931C279.26 60.5217 268.987 86.878 256.023 86.878C243.181 86.878 232.541 60.6438 226.059 44.2931C221.045 31.6031 217.009 19.1571 217.009 11.8359C217.009 6.58906 219.333 1.2202 226.671 1.2202C233.642 1.2202 235.843 6.223 237.8 15.0084C241.469 31.8471 248.807 52.5905 255.901 62.23Z" fill="#CD2D88"/>
<path d="M356 85.9018H330.806C323.223 85.9018 318.576 82.7293 318.576 76.1403C318.576 69.4292 323.468 66.3787 330.806 66.3787H343.036C340.223 54.2987 331.907 32.9453 326.036 26.1122C319.432 35.2637 310.993 56.007 306.835 73.3338C304.756 82.1192 302.555 86.878 295.706 86.878C288.49 86.878 285.8 82.3633 285.8 77.1164C285.8 70.1613 289.713 57.3492 295.217 43.9271C301.821 27.8205 313.195 1.2202 325.914 1.2202C338.633 1.2202 350.007 27.6985 356.489 43.9271C361.87 57.2272 365.783 69.5512 365.783 76.7504C365.783 82.2412 363.46 85.9018 356 85.9018Z" fill="#CD2D88"/>
<path d="M385.487 53.6398V42.9875L424.341 22.4516L430.946 35.5199L405.74 48.0391L431.826 60.5583L424.341 74.1757L385.487 53.6398Z" fill="#1EAFED"/>
<path d="M517.559 16.5941H493.559V82.8513H478.968V16.5941H455.105V3.94123H517.559V16.5941Z" fill="#1EAFED"/>
<path d="M589.234 82.8513H537.962V3.94123H589.234V16.5941H551.598V37.0018H580.78V49.9268H551.598V70.1985H589.234V82.8513Z" fill="#1EAFED"/>
<path d="M673.525 64.4843C673.525 75.0964 665.343 82.8513 654.162 82.8513H633.162C621.98 82.8513 613.798 75.0964 613.798 64.4843V22.3082C613.798 11.6962 621.98 3.94123 633.162 3.94123H654.434C665.753 3.94123 673.525 12.6486 673.525 23.1246V27.8864H659.616V21.9001C659.616 19.179 657.298 16.8662 654.843 16.8662H632.48C630.025 16.8662 627.707 19.179 627.707 21.9001V65.0285C627.707 67.7496 630.025 70.0625 632.48 70.0625H654.843C657.298 70.0625 659.616 67.7496 659.616 65.0285V58.9062H673.525V64.4843Z" fill="#1EAFED"/>
<path d="M757.751 82.8513H743.842V49.7907H711.933V82.8513H698.024V3.94123H711.933V36.7297H743.842V3.94123H757.751V82.8513Z" fill="#1EAFED"/>
<path d="M773.212 84.6084L802.49 7.62623H821.312L792.364 84.6084H773.212Z" fill="#1EAFED"/>
<path d="M886 42.9875V53.6398L847.146 74.1757L839.661 60.5583L865.747 48.0391L840.541 35.5199L847.146 22.4516L886 42.9875Z" fill="#1EAFED"/>
</svg>
